<svg height="auto" viewBox="0 0 2000 1000" xmlns="http://www.w3.org/2000/svg"><path d="M0 994.579c21-9.502 63-31.944 105-47.507 42-15.562 63-12.398 105-30.306 42-17.907 63-40.55 105-59.232 42-18.682 63-10.396 105-34.18 42-23.783 63-74.537 105-84.736 42-10.199 63 43.727 105 33.742s63-83.583 105-83.666c42-.083 63 86.387 105 83.25 42-3.136 63-90.34 105-98.932 42-8.594 63 100.59 105 55.966s63-240.538 105-279.088c42-38.549 63 100.124 105 86.342 42-13.783 63-139.346 105-155.254 42-15.908 63 80.97 105 75.715 42-5.256 63-96.299 105-101.991 42-5.693 63 67.134 105 73.528 42 6.394 63 19.157 105-41.556 42-60.714 63-265.056 105-262.01 42 3.045 84 221.788 105 277.236l5 598.1H0Z" fill="#444cf71a"/><path d="M0 994.579c21-9.502 63-31.944 105-47.507 42-15.562 63-12.398 105-30.306 42-17.907 63-40.55 105-59.232 42-18.682 63-10.396 105-34.18 42-23.783 63-74.537 105-84.736 42-10.199 63 43.727 105 33.742s63-83.583 105-83.666c42-.083 63 86.387 105 83.25 42-3.136 63-90.34 105-98.932 42-8.594 63 100.59 105 55.966s63-240.538 105-279.088c42-38.549 63 100.124 105 86.342 42-13.783 63-139.346 105-155.254 42-15.908 63 80.97 105 75.715 42-5.256 63-96.299 105-101.991 42-5.693 63 67.134 105 73.528 42 6.394 63 19.157 105-41.556 42-60.714 63-265.056 105-262.01 42 3.045 84 221.788 105 277.236" fill="none" stroke="#444cf7" stroke-width="4"/><g fill="#444cf7"><circle cy="994.579" r="8"/><circle cx="105" cy="947.072" r="8"/><circle cx="210" cy="916.766" r="8"/><circle cx="315" cy="857.534" r="8"/><circle cx="420" cy="823.355" r="8"/><circle cx="525" cy="738.618" r="8"/><circle cx="630" cy="772.36" r="8"/><circle cx="735" cy="688.694" r="8"/><circle cx="840" cy="771.945" r="8"/><circle cx="945" cy="673.012" r="8"/><circle cx="1050" cy="728.978" r="8"/><circle cx="1155" cy="449.89" r="8"/><circle cx="1260" cy="536.232" r="8"/><circle cx="1365" cy="380.978" r="8"/><circle cx="1470" cy="456.693" r="8"/><circle cx="1575" cy="354.702" r="8"/><circle cx="1680" cy="428.23" r="8"/><circle cx="1785" cy="386.674" r="8"/><circle cx="1890" cy="124.663" r="8"/><circle cx="1995" cy="401.9" r="8"/></g></svg>