<svg height="auto" viewBox="0 0 2000 1000" xmlns="http://www.w3.org/2000/svg"><path d="M0 998.025c21-9.543 63-36.276 105-47.712 42-11.437 63 .23 105-9.47 42-9.7 63-19.453 105-39.032 42-19.578 63-43.956 105-58.86 42-14.903 63-4.77 105-15.655s63-26.926 105-38.768c42-11.842 63 13.137 105-20.443s63-108.843 105-147.456c42-38.612 63-19.926 105-45.606 42-25.68 63-76.394 105-82.796 42-6.402 63 58.846 105 50.788s63-49.814 105-91.078c42-41.263 63-117.4 105-115.24 42 2.159 63 94.826 105 126.037 42 31.212 63 81.879 105 30.019 42-51.86 63-279.688 105-289.32 42-9.63 63 187.516 105 241.164 42 53.647 63 74.29 105 27.075 42-47.216 84-210.524 105-263.155l5 791.483H0Z" fill="#444cf71a"/><path d="M0 998.025c21-9.543 63-36.276 105-47.712 42-11.437 63 .23 105-9.47 42-9.7 63-19.453 105-39.032 42-19.578 63-43.956 105-58.86 42-14.903 63-4.77 105-15.655s63-26.926 105-38.768c42-11.842 63 13.137 105-20.443s63-108.843 105-147.456c42-38.612 63-19.926 105-45.606 42-25.68 63-76.394 105-82.796 42-6.402 63 58.846 105 50.788s63-49.814 105-91.078c42-41.263 63-117.4 105-115.24 42 2.159 63 94.826 105 126.037 42 31.212 63 81.879 105 30.019 42-51.86 63-279.688 105-289.32 42-9.63 63 187.516 105 241.164 42 53.647 63 74.29 105 27.075 42-47.216 84-210.524 105-263.155" fill="none" stroke="#444cf7" stroke-width="4"/><g fill="#444cf7"><circle cy="998.025" r="8"/><circle cx="105" cy="950.313" r="8"/><circle cx="210" cy="940.843" r="8"/><circle cx="315" cy="901.811" r="8"/><circle cx="420" cy="842.951" r="8"/><circle cx="525" cy="827.296" r="8"/><circle cx="630" cy="788.528" r="8"/><circle cx="735" cy="768.085" r="8"/><circle cx="840" cy="620.629" r="8"/><circle cx="945" cy="575.023" r="8"/><circle cx="1050" cy="492.227" r="8"/><circle cx="1155" cy="543.015" r="8"/><circle cx="1260" cy="451.937" r="8"/><circle cx="1365" cy="336.696" r="8"/><circle cx="1470" cy="462.734" r="8"/><circle cx="1575" cy="492.753" r="8"/><circle cx="1680" cy="203.433" r="8"/><circle cx="1785" cy="444.597" r="8"/><circle cx="1890" cy="471.672" r="8"/><circle cx="1995" cy="208.517" r="8"/></g></svg>