<svg height="auto" viewBox="0 0 2000 1000" xmlns="http://www.w3.org/2000/svg"><path d="M0 988.748c21-6.34 63-16.112 105-31.705s63-33.22 105-46.26c42-13.042 63-11.549 105-18.948 42-7.4 63-5.369 105-18.051 42-12.683 63-15.558 105-45.362 42-29.804 63-74.105 105-103.658 42-29.552 63-22.03 105-44.104 42-22.074 63-61.224 105-66.266 42-5.043 63 33.716 105 41.053 42 7.336 63 16.586 105-4.371s63-76.576 105-100.415c42-23.839 63-11.995 105-18.78 42-6.785 63 2.32 105-15.146 42-17.465 63-76.94 105-72.178 42 4.76 63 81.511 105 95.983 42 14.472 63 30.9 105-23.624 42-54.525 63-204.898 105-249.002 42-44.103 63-5.032 105 28.485 42 33.518 84 111.282 105 139.102l5 564.499H0Z" fill="#444cf71a"/><path d="M0 988.748c21-6.34 63-16.112 105-31.705s63-33.22 105-46.26c42-13.042 63-11.549 105-18.948 42-7.4 63-5.369 105-18.051 42-12.683 63-15.558 105-45.362 42-29.804 63-74.105 105-103.658 42-29.552 63-22.03 105-44.104 42-22.074 63-61.224 105-66.266 42-5.043 63 33.716 105 41.053 42 7.336 63 16.586 105-4.371s63-76.576 105-100.415c42-23.839 63-11.995 105-18.78 42-6.785 63 2.32 105-15.146 42-17.465 63-76.94 105-72.178 42 4.76 63 81.511 105 95.983 42 14.472 63 30.9 105-23.624 42-54.525 63-204.898 105-249.002 42-44.103 63-5.032 105 28.485 42 33.518 84 111.282 105 139.102" fill="none" stroke="#444cf7" stroke-width="4"/><g fill="#444cf7"><circle cy="988.748" r="8"/><circle cx="105" cy="957.043" r="8"/><circle cx="210" cy="910.782" r="8"/><circle cx="315" cy="891.835" r="8"/><circle cx="420" cy="873.784" r="8"/><circle cx="525" cy="828.422" r="8"/><circle cx="630" cy="724.764" r="8"/><circle cx="735" cy="680.66" r="8"/><circle cx="840" cy="614.394" r="8"/><circle cx="945" cy="655.447" r="8"/><circle cx="1050" cy="651.076" r="8"/><circle cx="1155" cy="550.661" r="8"/><circle cx="1260" cy="531.881" r="8"/><circle cx="1365" cy="516.735" r="8"/><circle cx="1470" cy="444.557" r="8"/><circle cx="1575" cy="540.54" r="8"/><circle cx="1680" cy="516.916" r="8"/><circle cx="1785" cy="267.914" r="8"/><circle cx="1890" cy="296.399" r="8"/><circle cx="1995" cy="435.501" r="8"/></g></svg>