<svg height="auto" viewBox="0 0 2000 1000" xmlns="http://www.w3.org/2000/svg"><path d="M0 989.309c21-8.043 63-29.888 105-40.214 42-10.327 63 8.172 105-11.418s63-69.593 105-86.53c42-16.938 63 16.754 105 1.843 42-14.911 63-64.505 105-76.4 42-11.894 63 43.597 105 16.928 42-26.668 63-121.504 105-150.269s63-16.577 105 6.444c42 23.02 63 92.144 105 108.66 42 16.516 63-4.907 105-26.082s63-52.995 105-79.795c42-26.8 63 12.432 105-54.206 42-66.639 63-248.299 105-278.987 42-30.688 63 141.873 105 125.547 42-16.325 63-159.423 105-207.175 42-47.753 63-84.785 105-31.588 42 53.198 63 245.67 105 297.575s63 34.52 105-38.05 84-259.841 105-324.801l5 859.209H0Z" fill="#444cf71a"/><path d="M0 989.309c21-8.043 63-29.888 105-40.214 42-10.327 63 8.172 105-11.418s63-69.593 105-86.53c42-16.938 63 16.754 105 1.843 42-14.911 63-64.505 105-76.4 42-11.894 63 43.597 105 16.928 42-26.668 63-121.504 105-150.269s63-16.577 105 6.444c42 23.02 63 92.144 105 108.66 42 16.516 63-4.907 105-26.082s63-52.995 105-79.795c42-26.8 63 12.432 105-54.206 42-66.639 63-248.299 105-278.987 42-30.688 63 141.873 105 125.547 42-16.325 63-159.423 105-207.175 42-47.753 63-84.785 105-31.588 42 53.198 63 245.67 105 297.575s63 34.52 105-38.05 84-259.841 105-324.801" fill="none" stroke="#444cf7" stroke-width="4"/><g fill="#444cf7"><circle cy="989.309" r="8"/><circle cx="105" cy="949.095" r="8"/><circle cx="210" cy="937.677" r="8"/><circle cx="315" cy="851.146" r="8"/><circle cx="420" cy="852.99" r="8"/><circle cx="525" cy="776.591" r="8"/><circle cx="630" cy="793.518" r="8"/><circle cx="735" cy="643.249" r="8"/><circle cx="840" cy="649.693" r="8"/><circle cx="945" cy="758.353" r="8"/><circle cx="1050" cy="732.271" r="8"/><circle cx="1155" cy="652.476" r="8"/><circle cx="1260" cy="598.27" r="8"/><circle cx="1365" cy="319.283" r="8"/><circle cx="1470" cy="444.83" r="8"/><circle cx="1575" cy="237.655" r="8"/><circle cx="1680" cy="206.067" r="8"/><circle cx="1785" cy="503.642" r="8"/><circle cx="1890" cy="465.592" r="8"/><circle cx="1995" cy="140.791" r="8"/></g></svg>