<svg height="auto" viewBox="0 0 2000 1000" xmlns="http://www.w3.org/2000/svg"><path d="M0 993.339c21-5.807 63-14.692 105-29.033 42-14.342 63-33.497 105-42.676 42-9.18 63 16.097 105-3.22 42-19.316 63-76.559 105-93.363 42-16.803 63 19.887 105 9.345 42-10.541 63-31.984 105-62.052 42-30.068 63-86.454 105-88.288 42-1.833 63 109.351 105 79.122s63-199.586 105-230.267c42-30.68 63 60.764 105 76.867 42 16.102 63 9.89 105 3.647 42-6.244 63 13.48 105-34.866 42-48.345 63-213.028 105-206.86 42 6.167 63 216.91 105 237.7 42 20.788 63-68.113 105-133.759 42-65.646 63-187.216 105-194.47 42-7.256 63 113.328 105 158.197 42 44.87 63 130.353 105 66.147 42-64.205 84-309.74 105-387.175l5 881.665H0Z" fill="#444cf71a"/><path d="M0 993.339c21-5.807 63-14.692 105-29.033 42-14.342 63-33.497 105-42.676 42-9.18 63 16.097 105-3.22 42-19.316 63-76.559 105-93.363 42-16.803 63 19.887 105 9.345 42-10.541 63-31.984 105-62.052 42-30.068 63-86.454 105-88.288 42-1.833 63 109.351 105 79.122s63-199.586 105-230.267c42-30.68 63 60.764 105 76.867 42 16.102 63 9.89 105 3.647 42-6.244 63 13.48 105-34.866 42-48.345 63-213.028 105-206.86 42 6.167 63 216.91 105 237.7 42 20.788 63-68.113 105-133.759 42-65.646 63-187.216 105-194.47 42-7.256 63 113.328 105 158.197 42 44.87 63 130.353 105 66.147 42-64.205 84-309.74 105-387.175" fill="none" stroke="#444cf7" stroke-width="4"/><g fill="#444cf7"><circle cy="993.339" r="8"/><circle cx="105" cy="964.306" r="8"/><circle cx="210" cy="921.63" r="8"/><circle cx="315" cy="918.41" r="8"/><circle cx="420" cy="825.047" r="8"/><circle cx="525" cy="834.392" r="8"/><circle cx="630" cy="772.34" r="8"/><circle cx="735" cy="684.052" r="8"/><circle cx="840" cy="763.174" r="8"/><circle cx="945" cy="532.907" r="8"/><circle cx="1050" cy="609.774" r="8"/><circle cx="1155" cy="613.421" r="8"/><circle cx="1260" cy="578.555" r="8"/><circle cx="1365" cy="371.694" r="8"/><circle cx="1470" cy="609.394" r="8"/><circle cx="1575" cy="475.636" r="8"/><circle cx="1680" cy="281.165" r="8"/><circle cx="1785" cy="439.363" r="8"/><circle cx="1890" cy="505.51" r="8"/><circle cx="1995" cy="118.335" r="8"/></g></svg>