<svg height="auto" viewBox="0 0 2000 1000" xmlns="http://www.w3.org/2000/svg"><path d="M0 999.55c21-5.466 63-10.565 105-27.333 42-16.77 63-36.635 105-56.51 42-19.874 63-21.93 105-42.863s63-59.208 105-61.802c42-2.593 63 55.277 105 48.836 42-6.441 63-56.147 105-81.04 42-24.893 63-21.949 105-43.425 42-21.477 63-28.14 105-63.957s63-120.598 105-115.128c42 5.47 63 154.564 105 142.478 42-12.085 63-149.572 105-202.907 42-53.335 63-80.907 105-63.768 42 17.14 63 131.189 105 149.467 42 18.278 63-45.41 105-58.077 42-12.666 63 62.562 105-5.258s63-298.634 105-333.839c42-35.205 63 92.348 105 157.813 42 65.465 63 232.129 105 169.51 42-62.617 84-386.08 105-482.6l5 970.853H0Z" fill="#444cf71a"/><path d="M0 999.55c21-5.466 63-10.565 105-27.333 42-16.77 63-36.635 105-56.51 42-19.874 63-21.93 105-42.863s63-59.208 105-61.802c42-2.593 63 55.277 105 48.836 42-6.441 63-56.147 105-81.04 42-24.893 63-21.949 105-43.425 42-21.477 63-28.14 105-63.957s63-120.598 105-115.128c42 5.47 63 154.564 105 142.478 42-12.085 63-149.572 105-202.907 42-53.335 63-80.907 105-63.768 42 17.14 63 131.189 105 149.467 42 18.278 63-45.41 105-58.077 42-12.666 63 62.562 105-5.258s63-298.634 105-333.839c42-35.205 63 92.348 105 157.813 42 65.465 63 232.129 105 169.51 42-62.617 84-386.08 105-482.6" fill="none" stroke="#444cf7" stroke-width="4"/><g fill="#444cf7"><circle cy="999.551" r="8"/><circle cx="105" cy="972.217" r="8"/><circle cx="210" cy="915.708" r="8"/><circle cx="315" cy="872.844" r="8"/><circle cx="420" cy="811.042" r="8"/><circle cx="525" cy="859.878" r="8"/><circle cx="630" cy="778.838" r="8"/><circle cx="735" cy="735.413" r="8"/><circle cx="840" cy="671.456" r="8"/><circle cx="945" cy="556.328" r="8"/><circle cx="1050" cy="698.806" r="8"/><circle cx="1155" cy="495.899" r="8"/><circle cx="1260" cy="432.131" r="8"/><circle cx="1365" cy="581.598" r="8"/><circle cx="1470" cy="523.521" r="8"/><circle cx="1575" cy="518.263" r="8"/><circle cx="1680" cy="184.424" r="8"/><circle cx="1785" cy="342.237" r="8"/><circle cx="1890" cy="511.748" r="8"/><circle cx="1995" cy="29.148" r="8"/></g></svg>